# xmcd
#
# Track frame offsets: 
#        150
#        17659
#        30980
#        46012
#        62888
#        79262
#        94203
#        112154
#        124429
#        141316
#        158307
#        176675
#
# Disc length: 2525 seconds
#
# Revision: 0
# Processed by: cddbd v1.5.2PL0 Copyright (c) Steve Scherf et al.
# Submitted via: ExactAudioCopy v0.99pb4
#
DISCID=9b09db0c
DTITLE=Clint Black - Pickin' On Clint Black
DYEAR=2004
DGENRE=Country
TTITLE0=No Time To Kill
TTITLE1=A Better Man
TTITLE2=The Shoes You're Wearing
TTITLE3=Burn One Down
TTITLE4=We Tell Ourselves
TTITLE5=Put Yourself In My Shoes
TTITLE6=When My Ship Comes In
TTITLE7=Killin' Time
TTITLE8=Loving Blind
TTITLE9=Nothin' But The Taillights
TTITLE10=When I Said I Do
TTITLE11=Walkin' In Katy
EXTD=
EXTT0=No Time To Kill
EXTT1=
EXTT2=
EXTT3=
EXTT4=
EXTT5=
EXTT6=
EXTT7=
EXTT8=
EXTT9=
EXTT10=
EXTT11=
PLAYORDER=
